<svg version="1" xmlns="http://www.w3.org/2000/svg" width="1365.333" height="1365.333" viewBox="0 0 1024.000000 1024.000000"><path d="M261.3 169.5c-15.3 1.9-32.2 5.8-46.1 10.7-51.7 17.8-95.4 58.3-112.5 104.3-10.7 28.6-13.3 62.3-7.2 92 10.9 52.6 48.4 94.8 112 126 8.3 4 31 14 50.5 22 19.5 8.1 42.3 18 50.5 22 16.9 8.3 35.8 20.4 45.4 29.1 19.4 17.7 29.9 39.1 32 65.6 3.2 39.7-10.7 74.4-39.1 97.3-9.8 7.9-26.7 16.5-38.2 19.5-24 6.1-53.9 4.3-76.3-4.6-20.7-8.3-39.6-25.2-49.8-44.5-6.9-13.2-13.4-37.2-16.7-61.7-1.1-8.5-1.3-9.3-3.2-8.8-1 .3-23.9 5.3-50.8 11.2-42.3 9.4-48.8 11-48.8 12.6 0 1 1.2 7.7 2.6 14.9 13.4 68.8 46.3 119.8 96.9 150.4 21.3 12.8 46.9 21.6 76.5 26.2 14.3 2.2 52.6 2.4 67 .5 50.4-7 90-26.8 124.5-62.3 17.3-17.8 27.6-32.5 37.5-53.2 13-27.4 18.6-52.2 19.7-86.7 1.1-38.6-4.5-65.9-19.8-96-8.2-16-17.4-28.4-31.4-42.5-28.8-28.7-58.8-45.9-133.8-76.5-23-9.3-46.4-19.3-52-22.1-30.9-15.4-49.1-34.3-54.3-56.6-2.2-9.3-1.4-27.2 1.6-36.3 3.6-10.6 8.9-19.7 16.2-27.5 20.9-22.4 48.5-32.8 82.8-31.2 31 1.4 51.9 10.9 69 31.1 5.7 6.7 17.9 24.2 22.5 32.1 1 1.6 5.2-.7 41-21.9 22-13.1 40.3-24.1 40.8-24.5 1.7-1.7-19.8-32.7-32.8-47.2-31-34.5-66.7-54.4-112.5-62.5-12.2-2.2-49.3-2.7-63.7-.9zM554 512.5V844h366v-95H655V529l128.8-.2 128.7-.3.3-47.3.2-47.2H655V275h265v-94H554v331.5z"/></svg>